<?xml version="1.0" encoding="utf-8" standalone="yes"?>
<!DOCTYPE svg PUBLIC "-//W3C//DTD SVG 1.1//EN" "http://www.w3.org/Graphics/SVG/1.1/DTD/svg11.dtd">
<svg width="567" height="627" viewBox="0 0 567 627" style="fill:none;stroke:none;fill-rule:evenodd;clip-rule:evenodd;stroke-linecap:round;stroke-linejoin:round;stroke-miterlimit:1.5;" version="1.1" xmlns="http://www.w3.org/2000/svg" xmlns:xlink="http://www.w3.org/1999/xlink"><style class="text-font-style fontImports" data-font-family="Roboto">@import url('https://fonts.googleapis.com/css2?family=Roboto:wght@400;700&amp;display=block');</style><g id="items" style="isolation: isolate"><g id="blend" style="mix-blend-mode: normal"><g id="g-root-8.cu_sy_1lr68531a3t2j3-fill" data-item-order="-63247" transform="translate(15.52862548828125, 504.84381103515625)"><g id="8.cu_sy_1lr68531a3t2j3-fill" stroke="none" fill="#69425a"><g><path d="M 127.336977 20.2322C 126.543977 29.7108 98.397177 34.4164 69.909777 39.6509C 48.711877 43.546 29.357977 45.288 21.745577 47.0136C 15.502477 48.4288 9.471377 52.8286 10.036877 61.629C 10.381077 66.9868 13.703477 71.4046 21.745577 72.035C 31.437377 72.7948 48.104077 69.9303 75.229277 65.242C 123.998977 56.8124 140.902977 48.3751 140.902977 31.5084C 140.902977 20.2322 125.553977 12.281 118.676977 10C 122.844977 11.6633 127.810977 14.562 127.336977 20.2322Z"></path></g></g></g><g id="g-root-8.cu_1_sy_1hbz73r1a3t05k-fill" data-item-order="-63245" transform="translate(18.224365234375, 498.57025146484375)"><g id="8.cu_1_sy_1hbz73r1a3t05k-fill" stroke="none" fill="#69425a"><g><path d="M 38.0076 27.1771C 16.9757 24.0392 10.9029 18.5537 10 17.5313C 11.8743 19.517101 14.7922 20.8771 19.0033 21.205301C 28.7014 21.9611 45.379 19.111301 72.522 14.446901C 81.0593 12.979801 88.6207 11.512401 95.2864 10C 102.5445 12.184001 110.341 13.569501 117.352 16.811C 120.339 18.2371 124.813 20.893001 124.686 26.0148C 124.538 31.989301 114.66 35.7537 102.0009 38.945201C 101.6757 38.8312 100.3044 38.284401 99.9973 38.1713C 92.3051 35.2781 65.1564 31.2276 38.0076 27.1771Z"></path></g></g></g><g id="g-root-7.cu_sy_1hbz73r1a3t05l-fill" data-item-order="-63241" transform="translate(15.52862548828125, 447.81951904296875)"><g id="7.cu_sy_1hbz73r1a3t05l-fill" stroke="none" fill="#68403f"><g><path d="M 127.336977 20.2322C 126.543977 29.7108 98.397177 34.4164 69.909777 39.6509C 48.711877 43.546 29.357977 45.288 21.745577 47.0136C 15.502477 48.4288 9.471377 52.8286 10.036877 61.629C 10.381077 66.9868 13.703477 71.4046 21.745577 72.035C 31.437377 72.7948 48.104077 69.9303 75.229277 65.242C 123.998977 56.8124 140.902977 48.3751 140.902977 31.5084C 140.902977 20.2322 125.553977 12.281 118.676977 10C 122.844977 11.6633 127.810977 14.562 127.336977 20.2322Z"></path></g></g></g><g id="g-root-7.cu_1_sy_1hbz73r1a3t05m-fill" data-item-order="-63239" transform="translate(18.224365234375, 441.54632568359375)"><g id="7.cu_1_sy_1hbz73r1a3t05m-fill" stroke="none" fill="#68403f"><g><path d="M 38.0076 27.1771C 16.9757 24.0392 10.9029 18.5537 10 17.5313C 11.8743 19.5171 14.7922 20.8771 19.0033 21.2053C 28.7014 21.9611 45.379 19.1113 72.522 14.4469C 81.0593 12.9798 88.6207 11.5124 95.2864 10C 102.5445 12.184 110.341 13.5695 117.352 16.811C 120.339 18.2371 124.813 20.893 124.686 26.0148C 124.538 31.9893 114.66 35.7537 102.0009 38.9452C 101.6757 38.8312 100.3044 38.2844 99.9973 38.1713C 92.3051 35.2781 65.1564 31.2276 38.0076 27.1771Z"></path></g></g></g><g id="g-root-6.cu_sy_1cw5ozb1a3t0xv-fill" data-item-order="-63235" transform="translate(15.52862548828125, 390.79443359375)"><g id="6.cu_sy_1cw5ozb1a3t0xv-fill" stroke="none" fill="#5c4938"><g><path d="M 127.336977 20.2322C 126.543977 29.7108 98.397177 34.4164 69.909777 39.6509C 48.711877 43.546 29.357977 45.288 21.745577 47.0136C 15.502477 48.4288 9.471377 52.8286 10.036877 61.629C 10.381077 66.9868 13.703477 71.4046 21.745577 72.035C 31.437377 72.7948 48.104077 69.9303 75.229277 65.242C 123.998977 56.8124 140.902977 48.3751 140.902977 31.5084C 140.902977 20.2322 125.553977 12.281 118.676977 10C 122.844977 11.6633 127.810977 14.562 127.336977 20.2322Z"></path></g></g></g><g id="g-root-6.cu_1_sy_1cw5ozb1a3t0xw-fill" data-item-order="-63233" transform="translate(18.224365234375, 384.52197265625)"><g id="6.cu_1_sy_1cw5ozb1a3t0xw-fill" stroke="none" fill="#5c4938"><g><path d="M 38.0076 27.1771C 16.9757 24.0392 10.9029 18.5537 10 17.5313C 11.8743 19.5171 14.7922 20.8771 19.0033 21.2053C 28.7014 21.9611 45.379 19.1113 72.522 14.4469C 81.0593 12.9798 88.6207 11.5124 95.2864 10C 102.5445 12.184 110.341 13.5695 117.352 16.811C 120.339 18.2371 124.813 20.893 124.686 26.0148C 124.538 31.9893 114.66 35.7537 102.0009 38.9452C 101.6757 38.8312 100.3044 38.2844 99.9973 38.1713C 92.3051 35.2781 65.1564 31.2276 38.0076 27.1771Z"></path></g></g></g><g id="g-root-5.cu_sy_140ioqf1a3t1ql-fill" data-item-order="-63229" transform="translate(15.52862548828125, 333.77020263671875)"><g id="5.cu_sy_140ioqf1a3t1ql-fill" stroke="none" fill="#54502f"><g><path d="M 127.336977 20.2322C 126.543977 29.7108 98.397177 34.4164 69.909777 39.6509C 48.711877 43.546 29.357977 45.288 21.745577 47.0136C 15.502477 48.4288 9.471377 52.8286 10.036877 61.629C 10.381077 66.9868 13.703477 71.4046 21.745577 72.035C 31.437377 72.7948 48.104077 69.9303 75.229277 65.242C 123.998977 56.8124 140.902977 48.3751 140.902977 31.5084C 140.902977 20.2322 125.553977 12.281 118.676977 10C 122.844977 11.6633 127.810977 14.562 127.336977 20.2322Z"></path></g></g></g><g id="g-root-5.cu_1_sy_140ioqf1a3t1qm-fill" data-item-order="-63227" transform="translate(18.224365234375, 327.4970703125)"><g id="5.cu_1_sy_140ioqf1a3t1qm-fill" stroke="none" fill="#54502f"><g><path d="M 38.0076 27.1771C 16.9757 24.0392 10.9029 18.5537 10 17.5313C 11.8743 19.5171 14.7922 20.8771 19.0033 21.2053C 28.7014 21.9611 45.379 19.1113 72.522 14.4469C 81.0593 12.9798 88.6207 11.5124 95.2864 10C 102.5445 12.184 110.341 13.5695 117.352 16.811C 120.339 18.2371 124.813 20.893 124.686 26.0148C 124.538 31.9893 114.66 35.7537 102.0009 38.9452C 101.6757 38.8312 100.3044 38.2844 99.9973 38.1713C 92.3051 35.2781 65.1564 31.2276 38.0076 27.1771Z"></path></g></g></g><g id="g-root-4.cu_sy_zkp6lz1a3t2iv-fill" data-item-order="-63223" transform="translate(15.52862548828125, 276.74609375)"><g id="4.cu_sy_zkp6lz1a3t2iv-fill" stroke="none" fill="#4b533a"><g><path d="M 127.336977 20.2322C 126.543977 29.7108 98.397177 34.4164 69.909777 39.6509C 48.711877 43.546 29.357977 45.288 21.745577 47.0136C 15.502477 48.4288 9.471377 52.8286 10.036877 61.629C 10.381077 66.9868 13.703477 71.4046 21.745577 72.035C 31.437377 72.7948 48.104077 69.9303 75.229277 65.242C 123.998977 56.8124 140.902977 48.3751 140.902977 31.5084C 140.902977 20.2322 125.553977 12.281 118.676977 10C 122.844977 11.6633 127.810977 14.562 127.336977 20.2322Z"></path></g></g></g><g id="g-root-4.cu_1_sy_zkp6lz1a3t2iw-fill" data-item-order="-63221" transform="translate(18.224365234375, 270.4736328125)"><g id="4.cu_1_sy_zkp6lz1a3t2iw-fill" stroke="none" fill="#4b533a"><g><path d="M 38.0076 27.1771C 16.9757 24.0392 10.9029 18.5537 10 17.5313C 11.8743 19.5171 14.7922 20.8771 19.0033 21.2053C 28.7014 21.9611 45.379 19.1113 72.522 14.4469C 81.0593 12.9798 88.6207 11.5124 95.2864 10C 102.5445 12.184 110.341 13.5695 117.352 16.811C 120.339 18.2371 124.813 20.893 124.686 26.0148C 124.538 31.9893 114.66 35.7537 102.0009 38.9452C 101.6757 38.8312 100.3044 38.2844 99.9973 38.1713C 92.3051 35.2781 65.1564 31.2276 38.0076 27.1771Z"></path></g></g></g><g id="g-root-3.cu_sy_zkp6lz1a3t2ix-fill" data-item-order="-63217" transform="translate(15.52862548828125, 219.720703125)"><g id="3.cu_sy_zkp6lz1a3t2ix-fill" stroke="none" fill="#3b5649"><g><path d="M 127.336977 20.2322C 126.543977 29.7108 98.397177 34.4164 69.909777 39.6509C 48.711877 43.546 29.357977 45.288 21.745577 47.0136C 15.502477 48.4288 9.471377 52.8286 10.036877 61.629C 10.381077 66.9868 13.703477 71.4046 21.745577 72.035C 31.437377 72.7948 48.104077 69.9303 75.229277 65.242C 123.998977 56.8124 140.902977 48.3751 140.902977 31.5084C 140.902977 20.2322 125.553977 12.281 118.676977 10C 122.844977 11.6633 127.810977 14.562 127.336977 20.2322Z"></path></g></g></g><g id="g-root-3.cu_1_sy_v5i5kn1a3t05e-fill" data-item-order="-63215" transform="translate(18.224365234375, 213.4482421875)"><g id="3.cu_1_sy_v5i5kn1a3t05e-fill" stroke="none" fill="#3b5649"><g><path d="M 38.0076 27.1771C 16.9757 24.0392 10.9029 18.5537 10 17.5313C 11.8743 19.5171 14.7922 20.8771 19.0033 21.2053C 28.7014 21.9611 45.379 19.1113 72.522 14.4469C 81.0593 12.9798 88.6207 11.5124 95.2864 10C 102.5445 12.184 110.341 13.5695 117.352 16.811C 120.339 18.2371 124.813 20.893 124.686 26.0148C 124.538 31.9893 114.66 35.7537 102.0009 38.9452C 101.6757 38.8312 100.3044 38.2844 99.9973 38.1713C 92.3051 35.2781 65.1564 31.2276 38.0076 27.1771Z"></path></g></g></g><g id="g-root-2.cu_sy_hu1n7b1a3t1qb-fill" data-item-order="-63211" transform="translate(15.52862548828125, 162.6962890625)"><g id="2.cu_sy_hu1n7b1a3t1qb-fill" stroke="none" fill="#344e57"><g><path d="M 127.336977 20.2322C 126.543977 29.7108 98.397177 34.4164 69.909777 39.6509C 48.711877 43.546 29.357977 45.288 21.745577 47.0136C 15.502477 48.4288 9.471377 52.8286 10.036877 61.629C 10.381077 66.9868 13.703477 71.4046 21.745577 72.035C 31.437377 72.7948 48.104077 69.9303 75.229277 65.242C 123.998977 56.8124 140.902977 48.3751 140.902977 31.5084C 140.902977 20.2322 125.553977 12.281 118.676977 10C 122.844977 11.6633 127.810977 14.562 127.336977 20.2322Z"></path></g></g></g><g id="g-root-2.cu_1_sy_hu1n7b1a3t1qc-fill" data-item-order="-63209" transform="translate(18.224365234375, 156.4228515625)"><g id="2.cu_1_sy_hu1n7b1a3t1qc-fill" stroke="none" fill="#344e57"><g><path d="M 38.0076 27.1771C 16.9757 24.0392 10.9029 18.5537 10 17.5313C 11.8743 19.5171 14.7922 20.8771 19.0033 21.2053C 28.7014 21.9611 45.379 19.1113 72.522 14.4469C 81.0593 12.9798 88.6207 11.5124 95.2864 10C 102.5445 12.184 110.341 13.5695 117.352 16.811C 120.339 18.2371 124.813 20.893 124.686 26.0148C 124.538 31.9893 114.66 35.7537 102.0009 38.9452C 101.6757 38.8312 100.3044 38.2844 99.9973 38.1713C 92.3051 35.2781 65.1564 31.2276 38.0076 27.1771Z"></path></g></g></g><g id="g-root-1.cu_sy_hu1n7b1a3t1qd-fill" data-item-order="-63205" transform="translate(15.52862548828125, 105.671875)"><g id="1.cu_sy_hu1n7b1a3t1qd-fill" stroke="none" fill="#3e4e69"><g><path d="M 127.336977 20.2322C 126.543977 29.7108 98.397177 34.4164 69.909777 39.6509C 48.711877 43.546 29.357977 45.288 21.745577 47.0136C 15.502477 48.4288 9.471377 52.8286 10.036877 61.629C 10.381077 66.9868 13.703477 71.4046 21.745577 72.035C 31.437377 72.7948 48.104077 69.9303 75.229277 65.242C 123.998977 56.8124 140.902977 48.3751 140.902977 31.5084C 140.902977 20.2322 125.553977 12.281 118.676977 10C 122.844977 11.6633 127.810977 14.562 127.336977 20.2322Z"></path></g></g></g><g id="g-root-1.cu_1_sy_8yemyf1a3t2j2-fill" data-item-order="-63203" transform="translate(15.5655517578125, 87)"><g id="1.cu_1_sy_8yemyf1a3t2j2-fill" stroke="none" fill="#3e4e69"><g><path d="M 21.6823 10.137885C 31.374 9.378085 48.067 11.794885 75.1922 16.483285C 90.003 19.043285 106.1882 22.819685 120.011 29.210385C 122.998 30.636385 127.472 33.292385 127.345 38.414185C 127.196 44.388685 117.319 48.153085 104.6598 51.344585C 104.3346 51.230585 102.9633 50.683785 102.6561 50.570685C 78.8756 41.626185 51.5585 39.244885 26.2368 35.204085C 24.7636 35.763885 21.9403 35.966885 20.221 35.763885C 15.9301 34.666285 10 31.373185 10 22.448585C 10 17.819185 13.6401 10.768285 21.6823 10.137885Z"></path></g></g></g><g id="g-root-1.Ellipse_sy_8yemyf1a3t2j3-fill" data-item-order="-63201" transform="translate(15.5289306640625, 87.178955078125)"><g id="1.Ellipse_sy_8yemyf1a3t2j3-fill" stroke="none" fill="#3e4e69"><g><path d="M 10 22.846066C 9.998156 29.94019 15.498816 35.692136 22.284863 35.692136C 29.070909 35.692136 34.57157 29.94019 34.569726 22.846066C 34.57157 15.751942 29.070909 9.999996 22.284863 9.999996C 15.498816 9.999996 9.998156 15.751942 10 22.846066"></path></g></g></g><g id="g-root-tx_clicklog_1q8v5iv1a3t1jh-fill" data-item-order="0" transform="translate(231.52859497070312, 231)"><g id="tx_clicklog_1q8v5iv1a3t1jh-fill" stroke="none" fill="#f4f4f4"><g><text style="font: 20px Roboto, sans-serif; white-space: pre;" font-size="20px" font-family="Roboto, sans-serif"><tspan x="12" y="33.5" dominant-baseline="ideographic">Click Login with Spotify</tspan></text></g></g></g><g id="g-root-auth_18n7et31a3x88z-fill" data-item-order="0" transform="translate(183.52859497070312, 285)"></g><g id="g-root-tx_redirect_1q8v5iv1a3t1jg-fill" data-item-order="0" transform="translate(231.52859497070312, 291)"><g id="tx_redirect_1q8v5iv1a3t1jg-fill" stroke="none" fill="#f4f4f4"><g><text style="font: 20px Roboto, sans-serif; white-space: pre;" font-size="20px" font-family="Roboto, sans-serif"><tspan x="12" y="33.5" dominant-baseline="ideographic">Redirect to Spotify</tspan></text></g></g></g><g id="g-root-spot_1lux2nr1a3ymte-fill" data-item-order="0" transform="translate(183.52859497070312, 225)"></g><g id="g-root-tx_checkaut_1lt1nef1a3t2bq-fill" data-item-order="0" transform="translate(231.52859497070312, 171)"><g id="tx_checkaut_1lt1nef1a3t2bq-fill" stroke="none" fill="#f4f4f4"><g><text style="font: 20px Roboto, sans-serif; white-space: pre;" font-size="20px" font-family="Roboto, sans-serif"><tspan x="12" y="33.5" dominant-baseline="ideographic">Check Authentication</tspan></text></g></g></g><g id="g-root-1_1lpx9yv1a3x98q-fill" data-item-order="0" transform="translate(183.52859497070312, 345)"></g><g id="g-root-tx_authoriz_3e3sn1a3t0xv-fill" data-item-order="0" transform="translate(231.52859497070312, 351)"><g id="tx_authoriz_3e3sn1a3t0xv-fill" stroke="none" fill="#f4f4f4"><g><text style="font: 20px Roboto, sans-serif; white-space: pre;" font-size="20px" font-family="Roboto, sans-serif"><tspan x="12" y="33.5" dominant-baseline="ideographic">Authorization by User</tspan></text></g></g></g><g id="g-root-1_8yeq471a3dl3e-fill" data-item-order="0" transform="translate(183.52859497070312, 165)"></g><g id="g-root-tx_usernavi_1lt1nef1a3t2br-fill" data-item-order="0" transform="translate(231.52859497070312, 111)"><g id="tx_usernavi_1lt1nef1a3t2br-fill" stroke="none" fill="#f4f4f4"><g><text style="font: 20px Roboto, sans-serif; white-space: pre;" font-size="20px" font-family="Roboto, sans-serif"><tspan x="12" y="33.5" dominant-baseline="ideographic">User Navigates to Main Route</tspan></text></g></g></g><g id="g-root-thro_4hc6nr1a3vvur-fill" data-item-order="0" transform="translate(183.52859497070312, 405)"></g><g id="g-root-tx_redirect_3e3sn1a3t0xu-fill" data-item-order="0" transform="translate(231.52859497070312, 411)"><g id="tx_redirect_3e3sn1a3t0xu-fill" stroke="none" fill="#f4f4f4"><g><text style="font: 20px Roboto, sans-serif; white-space: pre;" font-size="20px" font-family="Roboto, sans-serif"><tspan x="12" y="33.5" dominant-baseline="ideographic">Redirect with Authorization Code</tspan></text></g></g></g><g id="g-root-next_mg3zcn1a3dl3d-fill" data-item-order="0" transform="translate(183.52859497070312, 105)"></g><g id="g-root-tx_storetok_4j7lx31a3t05k-fill" data-item-order="0" transform="translate(231.52859497070312, 530.9999389648438)"><g id="tx_storetok_4j7lx31a3t05k-fill" stroke="none" fill="#f4f4f4"><g><text style="font: 20px Roboto, sans-serif; white-space: pre;" font-size="20px" font-family="Roboto, sans-serif"><tspan x="12" y="33.5" dominant-baseline="ideographic">Store Tokens in Cookies</tspan></text></g></g></g><g id="g-root-conv_v7dktz1a3ufpe-fill" data-item-order="0" transform="translate(183.52859497070312, 464.99993896484375)"></g><g id="g-root-tx_exchange_3e3sn1a3t0xt-fill" data-item-order="0" transform="translate(231.52859497070312, 470.99993896484375)"><g id="tx_exchange_3e3sn1a3t0xt-fill" stroke="none" fill="#f4f4f4"><g><text style="font: 20px Roboto, sans-serif; white-space: pre;" font-size="20px" font-family="Roboto, sans-serif"><tspan x="12" y="33.5" dominant-baseline="ideographic">Exchange Code for Tokens</tspan></text></g></g></g><g id="g-root-toke_1hdumd31a3szy9-fill" data-item-order="0" transform="translate(183.52859497070312, 524.9999389648438)"></g><g id="g-root-tx_spotifya_1lt1nef1a3t2bs-fill" data-item-order="0" transform="translate(171.528564453125, 39)"><g id="tx_spotifya_1lt1nef1a3t2bs-fill" stroke="none" fill="#f4f4f4"><g><text style="font: 20px Roboto, sans-serif; white-space: pre;" font-size="20px" font-family="Roboto, sans-serif"><tspan x="16.82" y="33.5" dominant-baseline="ideographic">Spotify Authentication Process</tspan></text></g></g></g><g id="g-root-8.cu_sy_1lr68531a3t2j3-stroke" data-item-order="-63247" transform="translate(15.52862548828125, 504.84381103515625)"><g id="8.cu_sy_1lr68531a3t2j3-stroke" fill="none" stroke-linecap="round" stroke-linejoin="round" stroke-miterlimit="4" stroke="#f366bb" stroke-width="2"><g><path d="M 69.909777 39.6509C 98.397177 34.4164 126.544077 29.7108 127.336877 20.2322C 127.811177 14.562 122.845377 11.6633 118.677377 10C 125.553977 12.281 140.902677 20.2322 140.902677 31.5084C 140.902677 48.3752 123.999377 56.8124 75.229277 65.242C 48.104077 69.9303 31.437377 72.7948 21.745577 72.035C 13.703477 71.4046 10.381077 66.9868 10.036877 61.629C 9.471377 52.8286 15.502477 48.4288 21.745577 47.0136C 29.357977 45.288 48.711877 43.546 69.909777 39.6509Z"></path></g></g></g><g id="g-root-8.cu_1_sy_1hbz73r1a3t05k-stroke" data-item-order="-63245" transform="translate(18.224365234375, 498.57025146484375)"><g id="8.cu_1_sy_1hbz73r1a3t05k-stroke" fill="none" stroke-linecap="round" stroke-linejoin="round" stroke-miterlimit="4" stroke="#f366bb" stroke-width="2"><g><path d="M 38.0076 27.1771C 16.9757 24.0392 10.9029 18.5537 10 17.5313C 11.8743 19.517101 14.7922 20.8771 19.0033 21.205301C 28.7014 21.9611 45.379 19.111301 72.522 14.446901C 81.0593 12.979801 88.6207 11.512401 95.2864 10C 102.5445 12.184001 110.3408 13.569501 117.3519 16.811C 120.3393 18.2371 124.8131 20.893001 124.6859 26.0148C 124.5376 31.989301 114.6599 35.7537 102.0009 38.945201C 101.6757 38.8312 100.3044 38.284401 99.9973 38.1713C 92.3051 35.2781 65.1564 31.2276 38.0076 27.1771ZM 117.3519 16.811L 117.5995 16.925501"></path></g></g></g><g id="g-root-7.cu_sy_1hbz73r1a3t05l-stroke" data-item-order="-63241" transform="translate(15.52862548828125, 447.81951904296875)"><g id="7.cu_sy_1hbz73r1a3t05l-stroke" fill="none" stroke-linecap="round" stroke-linejoin="round" stroke-miterlimit="4" stroke="#fb6762" stroke-width="2"><g><path d="M 69.909777 39.6509C 98.397177 34.4164 126.544077 29.7108 127.336877 20.2322C 127.811177 14.562 122.845377 11.6633 118.677377 10C 125.553977 12.281 140.902677 20.2322 140.902677 31.5084C 140.902677 48.3752 123.999377 56.8124 75.229277 65.242C 48.104077 69.9303 31.437377 72.7948 21.745577 72.035C 13.703477 71.4046 10.381077 66.9868 10.036877 61.629C 9.471377 52.8286 15.502477 48.4288 21.745577 47.0136C 29.357977 45.288 48.711877 43.546 69.909777 39.6509Z"></path></g></g></g><g id="g-root-7.cu_1_sy_1hbz73r1a3t05m-stroke" data-item-order="-63239" transform="translate(18.224365234375, 441.54632568359375)"><g id="7.cu_1_sy_1hbz73r1a3t05m-stroke" fill="none" stroke-linecap="round" stroke-linejoin="round" stroke-miterlimit="4" stroke="#fb6762" stroke-width="2"><g><path d="M 38.0076 27.1771C 16.9757 24.0392 10.9029 18.5537 10 17.5313C 11.8743 19.5171 14.7922 20.8771 19.0033 21.2053C 28.7014 21.9611 45.379 19.1113 72.522 14.4469C 81.0593 12.9798 88.6207 11.5124 95.2864 10C 102.5445 12.184 110.3408 13.5695 117.3519 16.811C 120.3393 18.2371 124.8131 20.893 124.6859 26.0148C 124.5376 31.9893 114.6599 35.7537 102.0009 38.9452C 101.6757 38.8312 100.3044 38.2844 99.9973 38.1713C 92.3051 35.2781 65.1564 31.2276 38.0076 27.1771ZM 117.3519 16.811L 117.5995 16.9255"></path></g></g></g><g id="g-root-6.cu_sy_1cw5ozb1a3t0xv-stroke" data-item-order="-63235" transform="translate(15.52862548828125, 390.79443359375)"><g id="6.cu_sy_1cw5ozb1a3t0xv-stroke" fill="none" stroke-linecap="round" stroke-linejoin="round" stroke-miterlimit="4" stroke="#f79438" stroke-width="2"><g><path d="M 69.909777 39.6509C 98.397177 34.4164 126.544077 29.7108 127.336877 20.2322C 127.811177 14.562 122.845377 11.6633 118.677377 10C 125.553977 12.281 140.902677 20.2322 140.902677 31.5084C 140.902677 48.3752 123.999377 56.8124 75.229277 65.242C 48.104077 69.9303 31.437377 72.7948 21.745577 72.035C 13.703477 71.4046 10.381077 66.9868 10.036877 61.629C 9.471377 52.8286 15.502477 48.4288 21.745577 47.0136C 29.357977 45.288 48.711877 43.546 69.909777 39.6509Z"></path></g></g></g><g id="g-root-6.cu_1_sy_1cw5ozb1a3t0xw-stroke" data-item-order="-63233" transform="translate(18.224365234375, 384.52197265625)"><g id="6.cu_1_sy_1cw5ozb1a3t0xw-stroke" fill="none" stroke-linecap="round" stroke-linejoin="round" stroke-miterlimit="4" stroke="#f79438" stroke-width="2"><g><path d="M 38.0076 27.1771C 16.9757 24.0392 10.9029 18.5537 10 17.5313C 11.8743 19.5171 14.7922 20.8771 19.0033 21.2053C 28.7014 21.9611 45.379 19.1113 72.522 14.4469C 81.0593 12.9798 88.6207 11.5124 95.2864 10C 102.5445 12.184 110.3408 13.5695 117.3519 16.811C 120.3393 18.2371 124.8131 20.893 124.6859 26.0148C 124.5376 31.9893 114.6599 35.7537 102.0009 38.9452C 101.6757 38.8312 100.3044 38.2844 99.9973 38.1713C 92.3051 35.2781 65.1564 31.2276 38.0076 27.1771ZM 117.3519 16.811L 117.5995 16.9255"></path></g></g></g><g id="g-root-5.cu_sy_140ioqf1a3t1ql-stroke" data-item-order="-63229" transform="translate(15.52862548828125, 333.77020263671875)"><g id="5.cu_sy_140ioqf1a3t1ql-stroke" fill="none" stroke-linecap="round" stroke-linejoin="round" stroke-miterlimit="4" stroke="#ffe711" stroke-width="2"><g><path d="M 69.909777 39.6509C 98.397177 34.4164 126.544077 29.7108 127.336877 20.2322C 127.811177 14.562 122.845377 11.6633 118.677377 10C 125.553977 12.281 140.902677 20.2322 140.902677 31.5084C 140.902677 48.3752 123.999377 56.8124 75.229277 65.242C 48.104077 69.9303 31.437377 72.7948 21.745577 72.035C 13.703477 71.4046 10.381077 66.9868 10.036877 61.629C 9.471377 52.8286 15.502477 48.4288 21.745577 47.0136C 29.357977 45.288 48.711877 43.546 69.909777 39.6509Z"></path></g></g></g><g id="g-root-5.cu_1_sy_140ioqf1a3t1qm-stroke" data-item-order="-63227" transform="translate(18.224365234375, 327.4970703125)"><g id="5.cu_1_sy_140ioqf1a3t1qm-stroke" fill="none" stroke-linecap="round" stroke-linejoin="round" stroke-miterlimit="4" stroke="#ffe711" stroke-width="2"><g><path d="M 38.0076 27.1771C 16.9757 24.0392 10.9029 18.5537 10 17.5313C 11.8743 19.5171 14.7922 20.8771 19.0033 21.2053C 28.7014 21.9611 45.379 19.1113 72.522 14.4469C 81.0593 12.9798 88.6207 11.5124 95.2864 10C 102.5445 12.184 110.3408 13.5695 117.3519 16.811C 120.3393 18.2371 124.8131 20.893 124.6859 26.0148C 124.5376 31.9893 114.6599 35.7537 102.0009 38.9452C 101.6757 38.8312 100.3044 38.2844 99.9973 38.1713C 92.3051 35.2781 65.1564 31.2276 38.0076 27.1771ZM 117.3519 16.811L 117.5995 16.9255"></path></g></g></g><g id="g-root-4.cu_sy_zkp6lz1a3t2iv-stroke" data-item-order="-63223" transform="translate(15.52862548828125, 276.74609375)"><g id="4.cu_sy_zkp6lz1a3t2iv-stroke" fill="none" stroke-linecap="round" stroke-linejoin="round" stroke-miterlimit="4" stroke="#a6da37" stroke-width="2"><g><path d="M 69.909777 39.6509C 98.397177 34.4164 126.544077 29.7108 127.336877 20.2322C 127.811177 14.562 122.845377 11.6633 118.677377 10C 125.553977 12.281 140.902677 20.2322 140.902677 31.5084C 140.902677 48.3752 123.999377 56.8124 75.229277 65.242C 48.104077 69.9303 31.437377 72.7948 21.745577 72.035C 13.703477 71.4046 10.381077 66.9868 10.036877 61.629C 9.471377 52.8286 15.502477 48.4288 21.745577 47.0136C 29.357977 45.288 48.711877 43.546 69.909777 39.6509Z"></path></g></g></g><g id="g-root-4.cu_1_sy_zkp6lz1a3t2iw-stroke" data-item-order="-63221" transform="translate(18.224365234375, 270.4736328125)"><g id="4.cu_1_sy_zkp6lz1a3t2iw-stroke" fill="none" stroke-linecap="round" stroke-linejoin="round" stroke-miterlimit="4" stroke="#a6da37" stroke-width="2"><g><path d="M 38.0076 27.1771C 16.9757 24.0392 10.9029 18.5537 10 17.5313C 11.8743 19.5171 14.7922 20.8771 19.0033 21.2053C 28.7014 21.9611 45.379 19.1113 72.522 14.4469C 81.0593 12.9798 88.6207 11.5124 95.2864 10C 102.5445 12.184 110.3408 13.5695 117.3519 16.811C 120.3393 18.2371 124.8131 20.893 124.6859 26.0148C 124.5376 31.9893 114.6599 35.7537 102.0009 38.9452C 101.6757 38.8312 100.3044 38.2844 99.9973 38.1713C 92.3051 35.2781 65.1564 31.2276 38.0076 27.1771ZM 117.3519 16.811L 117.5995 16.9255"></path></g></g></g><g id="g-root-3.cu_sy_zkp6lz1a3t2ix-stroke" data-item-order="-63217" transform="translate(15.52862548828125, 219.720703125)"><g id="3.cu_sy_zkp6lz1a3t2ix-stroke" fill="none" stroke-linecap="round" stroke-linejoin="round" stroke-miterlimit="4" stroke="#43dd93" stroke-width="2"><g><path d="M 69.909777 39.6509C 98.397177 34.4164 126.544077 29.7108 127.336877 20.2322C 127.811177 14.562 122.845377 11.6633 118.677377 10C 125.553977 12.281 140.902677 20.2322 140.902677 31.5084C 140.902677 48.3752 123.999377 56.8124 75.229277 65.242C 48.104077 69.9303 31.437377 72.7948 21.745577 72.035C 13.703477 71.4046 10.381077 66.9868 10.036877 61.629C 9.471377 52.8286 15.502477 48.4288 21.745577 47.0136C 29.357977 45.288 48.711877 43.546 69.909777 39.6509Z"></path></g></g></g><g id="g-root-3.cu_1_sy_v5i5kn1a3t05e-stroke" data-item-order="-63215" transform="translate(18.224365234375, 213.4482421875)"><g id="3.cu_1_sy_v5i5kn1a3t05e-stroke" fill="none" stroke-linecap="round" stroke-linejoin="round" stroke-miterlimit="4" stroke="#43dd93" stroke-width="2"><g><path d="M 38.0076 27.1771C 16.9757 24.0392 10.9029 18.5537 10 17.5313C 11.8743 19.5171 14.7922 20.8771 19.0033 21.2053C 28.7014 21.9611 45.379 19.1113 72.522 14.4469C 81.0593 12.9798 88.6207 11.5124 95.2864 10C 102.5445 12.184 110.3408 13.5695 117.3519 16.811C 120.3393 18.2371 124.8131 20.893 124.6859 26.0148C 124.5376 31.9893 114.6599 35.7537 102.0009 38.9452C 101.6757 38.8312 100.3044 38.2844 99.9973 38.1713C 92.3051 35.2781 65.1564 31.2276 38.0076 27.1771ZM 117.3519 16.811L 117.5995 16.9255"></path></g></g></g><g id="g-root-2.cu_sy_hu1n7b1a3t1qb-stroke" data-item-order="-63211" transform="translate(15.52862548828125, 162.6962890625)"><g id="2.cu_sy_hu1n7b1a3t1qb-stroke" fill="none" stroke-linecap="round" stroke-linejoin="round" stroke-miterlimit="4" stroke="#1ac3fb" stroke-width="2"><g><path d="M 69.909777 39.6509C 98.397177 34.4164 126.544077 29.7108 127.336877 20.2322C 127.811177 14.562 122.845377 11.6633 118.677377 10C 125.553977 12.281 140.902677 20.2322 140.902677 31.5084C 140.902677 48.3752 123.999377 56.8124 75.229277 65.242C 48.104077 69.9303 31.437377 72.7948 21.745577 72.035C 13.703477 71.4046 10.381077 66.9868 10.036877 61.629C 9.471377 52.8286 15.502477 48.4288 21.745577 47.0136C 29.357977 45.288 48.711877 43.546 69.909777 39.6509Z"></path></g></g></g><g id="g-root-2.cu_1_sy_hu1n7b1a3t1qc-stroke" data-item-order="-63209" transform="translate(18.224365234375, 156.4228515625)"><g id="2.cu_1_sy_hu1n7b1a3t1qc-stroke" fill="none" stroke-linecap="round" stroke-linejoin="round" stroke-miterlimit="4" stroke="#1ac3fb" stroke-width="2"><g><path d="M 38.0076 27.1771C 16.9757 24.0392 10.9029 18.5537 10 17.5313C 11.8743 19.5171 14.7922 20.8771 19.0033 21.2053C 28.7014 21.9611 45.379 19.1113 72.522 14.4469C 81.0593 12.9798 88.6207 11.5124 95.2864 10C 102.5445 12.184 110.3408 13.5695 117.3519 16.811C 120.3393 18.2371 124.8131 20.893 124.6859 26.0148C 124.5376 31.9893 114.6599 35.7537 102.0009 38.9452C 101.6757 38.8312 100.3044 38.2844 99.9973 38.1713C 92.3051 35.2781 65.1564 31.2276 38.0076 27.1771ZM 117.3519 16.811L 117.5995 16.9255"></path></g></g></g><g id="g-root-1.cu_sy_hu1n7b1a3t1qd-stroke" data-item-order="-63205" transform="translate(15.52862548828125, 105.671875)"><g id="1.cu_sy_hu1n7b1a3t1qd-stroke" fill="none" stroke-linecap="round" stroke-linejoin="round" stroke-miterlimit="4" stroke="#4f91fc" stroke-width="2"><g><path d="M 69.909777 39.6509C 98.397177 34.4164 126.544077 29.7108 127.336877 20.2322C 127.811177 14.562 122.845377 11.6633 118.677377 10C 125.553977 12.281 140.902677 20.2322 140.902677 31.5084C 140.902677 48.3752 123.999377 56.8124 75.229277 65.242C 48.104077 69.9303 31.437377 72.7948 21.745577 72.035C 13.703477 71.4046 10.381077 66.9868 10.036877 61.629C 9.471377 52.8286 15.502477 48.4288 21.745577 47.0136C 29.357977 45.288 48.711877 43.546 69.909777 39.6509Z"></path></g></g></g><g id="g-root-1.cu_1_sy_8yemyf1a3t2j2-stroke" data-item-order="-63203" transform="translate(15.5655517578125, 87)"><g id="1.cu_1_sy_8yemyf1a3t2j2-stroke" fill="none" stroke-linecap="round" stroke-linejoin="round" stroke-miterlimit="4" stroke="#4f91fc" stroke-width="2"><g><path d="M 120.0108 29.210385C 122.9982 30.636385 127.4718 33.292385 127.3446 38.414185C 127.1963 44.388685 117.3187 48.153085 104.6598 51.344585C 104.3346 51.230585 102.9633 50.683785 102.6561 50.570685C 78.8756 41.626185 51.5585 39.244885 26.2368 35.204085C 24.7636 35.763885 21.9403 35.966885 20.221 35.763885C 15.9301 34.666285 10 31.373185 10 22.448585C 10 17.819185 13.6401 10.768285 21.6823 10.137885C 31.374 9.378085 48.067 11.794885 75.1922 16.483285C 90.003 19.043185 106.1882 22.819685 120.0108 29.210385ZM 120.0108 29.210385L 120.2583 29.324785"></path></g></g></g><g id="g-root-1.Ellipse_sy_8yemyf1a3t2j3-stroke" data-item-order="-63201" transform="translate(15.5289306640625, 87.178955078125)"><g id="1.Ellipse_sy_8yemyf1a3t2j3-stroke" fill="none" stroke-linecap="round" stroke-linejoin="round" stroke-miterlimit="4" stroke="#4f91fc" stroke-width="2"><g><path d="M 10 22.846066C 9.998156 29.94019 15.498816 35.692136 22.284863 35.692136C 29.070909 35.692136 34.57157 29.94019 34.569726 22.846066C 34.57157 15.751942 29.070909 9.999996 22.284863 9.999996C 15.498816 9.999996 9.998156 15.751942 10 22.846066"></path></g></g></g><g id="g-root-tx_clicklog_1q8v5iv1a3t1jh-stroke" data-item-order="0" transform="translate(231.52859497070312, 231)"></g><g id="g-root-auth_18n7et31a3x88z-stroke" data-item-order="0" transform="translate(183.52859497070312, 285)"><g id="auth_18n7et31a3x88z-stroke" fill="none" stroke-linecap="round" stroke-linejoin="round" stroke-miterlimit="4" stroke="#a6da37" stroke-width="2"><g><path d="M 10.75 28C 10.75 37.526913 18.473087 45.25 28 45.25C 37.526913 45.25 45.25 37.526913 45.25 28C 45.25 18.473087 37.526913 10.75 28 10.75C 18.473087 10.75 10.75 18.473087 10.75 28M 10 10M 32.185001 27.835001L 27.684999 23.335001C 26.244436 21.778904 24.068466 21.134787 22.012989 21.656012C 19.957512 22.177235 18.351402 23.780401 17.826412 25.834921C 17.301422 27.889439 17.941545 30.066586 19.494999 31.509998L 22.780001 34.795002M 10 10M 25 29.349998L 28.27 32.619999C 30.550507 34.738968 34.09832 34.675484 36.301556 32.47628C 38.504791 30.277077 38.574783 26.729389 36.459999 24.445L 33.189999 21.16"></path></g></g></g><g id="g-root-tx_redirect_1q8v5iv1a3t1jg-stroke" data-item-order="0" transform="translate(231.52859497070312, 291)"></g><g id="g-root-spot_1lux2nr1a3ymte-stroke" data-item-order="0" transform="translate(183.52859497070312, 225)"><g id="spot_1lux2nr1a3ymte-stroke" fill="none" stroke-linecap="round" stroke-linejoin="round" stroke-miterlimit="4" stroke="#43dd93" stroke-width="2"><g><path d="M 40.675003 16.975C 32.845665 12.61667 23.319336 12.61667 15.49 16.975M 20.965 25.344999C 25.053194 21.829573 31.096804 21.829573 35.184998 25.344999M 38.170002 21.235001C 32.121498 17.252008 24.297623 17.193272 18.190001 21.084999M 35.185001 25.344999C 31.096804 21.829573 25.053194 21.829573 20.965 25.344999M 20.380001 42.220001C 21.133968 38.569885 24.347832 35.951183 28.074999 35.949997C 31.715906 36.169231 34.811646 38.68565 35.77 42.204998L 43 42.204998C 42.230553 34.539391 35.779129 28.703121 28.075001 28.703121C 20.370871 28.703121 13.919449 34.539391 13.150001 42.205002Z"></path></g></g></g><g id="g-root-tx_checkaut_1lt1nef1a3t2bq-stroke" data-item-order="0" transform="translate(231.52859497070312, 171)"></g><g id="g-root-1_1lpx9yv1a3x98q-stroke" data-item-order="0" transform="translate(183.52859497070312, 345)"><g id="1_1lpx9yv1a3x98q-stroke" fill="none" stroke-linecap="round" stroke-linejoin="round" stroke-miterlimit="4" stroke="#ffe711" stroke-width="2"><g><path d="M 30.25 37.75C 30.25 41.892136 33.607864 45.25 37.75 45.25C 41.892136 45.25 45.25 41.892136 45.25 37.75C 45.25 33.607864 41.892136 30.25 37.75 30.25C 33.607864 30.25 30.25 33.607864 30.25 37.75ZM 10 10M 34.75 38.5L 36.3745 40.1245C 36.530396 40.280155 36.746838 40.359398 36.966381 40.341198C 37.185925 40.322998 37.386364 40.209198 37.5145 40.029999L 40.75 35.5M 10.75 30.25C 10.764584 28.857531 11.052534 27.481483 11.5975 26.200001C 12.1975 25 14.692 24.174999 17.827 23.014C 18.6745 22.7005 18.535 20.488001 18.16 20.073999C 16.951414 18.764374 16.359303 17.001141 16.532499 15.2275C 16.423904 14.098195 16.789553 12.974556 17.541958 12.125433C 18.294363 11.276311 19.365833 10.778097 20.5 10.75C 21.634167 10.778097 22.705635 11.276311 23.45804 12.125433C 24.210445 12.974556 24.576096 14.098195 24.467499 15.2275C 24.641136 17.001642 24.048994 18.765514 22.84 20.075499C 22.465 20.4895 22.3255 22.702 23.173 23.015499C 26.307999 24.1765 28.804001 25.006001 29.4025 26.2015C 29.947466 27.482983 30.235416 28.85903 30.25 30.251501ZM 26.368 11.1055C 26.879528 10.869296 27.436571 10.747955 27.999998 10.75C 29.134165 10.778097 30.205635 11.276311 30.95804 12.125433C 31.710445 12.974556 32.076096 14.098195 31.967499 15.2275C 32.141136 17.001642 31.548994 18.765514 30.34 20.075499C 29.965 20.4895 29.8255 22.702 30.673 23.015499C 33.807999 24.1765 36.304001 25.006001 36.9025 26.2015C 37.067238 26.539467 37.20322 26.890709 37.309002 27.251501"></path></g></g></g><g id="g-root-tx_authoriz_3e3sn1a3t0xv-stroke" data-item-order="0" transform="translate(231.52859497070312, 351)"></g><g id="g-root-1_8yeq471a3dl3e-stroke" data-item-order="0" transform="translate(183.52859497070312, 165)"><g id="1_8yeq471a3dl3e-stroke" fill="none" stroke-linecap="round" stroke-linejoin="round" stroke-miterlimit="4" stroke="#1ac3fb" stroke-width="2"><g><path d="M 16.630001 18.198999C 16.629341 21.014462 18.911539 23.297192 21.726999 23.297192C 24.542461 23.297192 26.824657 21.014462 26.823999 18.198999C 26.824657 15.383539 24.542461 13.100807 21.726999 13.100807C 18.911539 13.100807 16.629341 15.383539 16.630001 18.198999M 28.705 29.567501C 27.15196 27.179653 24.496714 25.739162 21.648251 25.739162C 18.799788 25.739162 16.144539 27.179653 14.591499 29.567501M 10.75 14.671L 10.75 10.75L 14.671 10.75M 32.703999 14.671L 32.703999 10.75L 28.7845 10.75M 10.75 30.351999L 10.75 34.272999L 14.671 34.272999M 29.569 37.4095C 29.568039 41.740368 33.078632 45.25174 37.4095 45.25174C 41.740368 45.25174 45.250961 41.740368 45.25 37.4095C 45.250961 33.078632 41.740368 29.567261 37.4095 29.567261C 33.078632 29.567261 29.568039 33.078632 29.569 37.4095M 35.057499 38.977001L 36.625 40.546001L 40.546001 34.272999M 18.053499 14.671C 20.371113 16.997524 23.540918 18.272602 26.823999 18.198999"></path></g></g></g><g id="g-root-tx_usernavi_1lt1nef1a3t2br-stroke" data-item-order="0" transform="translate(231.52859497070312, 111)"></g><g id="g-root-thro_4hc6nr1a3vvur-stroke" data-item-order="0" transform="translate(183.52859497070312, 405)"><g id="thro_4hc6nr1a3vvur-stroke" fill="none" stroke-linecap="round" stroke-linejoin="round" stroke-miterlimit="4" stroke="#f79438" stroke-width="2"><g><path d="M 18.877584 21.83593L 13.840825 21.83593C 13.01239 21.83593 12.340825 21.164366 12.340825 20.33593L 12.340825 14.25391C 12.340825 13.425475 13.01239 12.75391 13.840825 12.75391L 31.927299 12.75391C 32.7556 12.75391 33.427299 13.425475 33.427299 14.25391L 33.427299 15.53545M 17.17684 17.586145C 16.97506 17.586145 16.811529 17.422615 16.811529 17.220835C 16.811529 17.019054 16.97506 16.855465 17.17684 16.855465M 17.175701 17.586145C 17.37748 17.586145 17.54101 17.422615 17.54101 17.220835C 17.54101 17.019054 17.37748 16.855465 17.175701 16.855465M 21.424885 17.586145C 21.223104 17.586145 21.059576 17.422615 21.059576 17.220835C 21.059576 17.019054 21.223104 16.855465 21.424885 16.855465M 21.423744 17.586145C 21.625525 17.586145 21.78907 17.422615 21.78907 17.220835C 21.78907 17.019054 21.625525 16.855465 21.423744 16.855465M 10 10M 43.659252 36.4258L 26.70355 36.4258M 21.422846 36.4258L 12.34057 36.4258M 10 10M 15.270505 33.496151L 12.33979 36.427902L 15.270505 39.358597M 38.275898 40.442352C 38.275898 41.940399 36.96505 43.251251 35.467003 43.251251L 24.231686 43.251251C 22.73365 43.251251 21.422846 42.12775 21.422846 40.442352L 21.422846 32.0158C 21.422846 30.51775 22.73365 29.20705 24.231686 29.20705L 35.467003 29.20705C 36.96505 29.20705 38.275898 30.51775 38.275898 32.0158M 29.850101 20.78125C 26.666801 20.78125 24.23242 23.21557 24.23242 26.398899L 24.23242 29.2078L 35.467751 29.2078L 35.467751 26.398899C 35.467751 23.40283 33.033401 20.78125 29.850101 20.78125Z"></path></g></g></g><g id="g-root-tx_redirect_3e3sn1a3t0xu-stroke" data-item-order="0" transform="translate(231.52859497070312, 411)"></g><g id="g-root-next_mg3zcn1a3dl3d-stroke" data-item-order="0" transform="translate(183.52859497070312, 105)"><g id="next_mg3zcn1a3dl3d-stroke" fill="none" stroke-linecap="round" stroke-linejoin="round" stroke-miterlimit="4" stroke="#4f91fc" stroke-width="2"><g><path d="M 38.545002 28.006001L 45.295002 33.256001L 38.545002 38.506001M 45.295002 33.25L 40.045002 33.25C 35.074436 33.25 31.045002 37.279438 31.045002 42.25L 31.045 45.25M 11.545 16.756001L 41.545002 16.756001M 16.045 13.381L 16.045 13.381M 16.045 13.381C 15.837893 13.381 15.67 13.548893 15.67 13.756C 15.67 13.963107 15.837893 14.131 16.045 14.131C 16.252108 14.131 16.42 13.963107 16.42 13.756C 16.42 13.548893 16.252108 13.381 16.045 13.381M 19.045 13.381L 19.045 13.381M 19.045 13.381C 18.837893 13.381 18.67 13.548893 18.67 13.756C 18.67 13.963107 18.837893 14.131 19.045 14.131C 19.252108 14.131 19.42 13.963107 19.42 13.756C 19.42 13.548893 19.252108 13.381 19.045 13.381M 22.045 13.381L 22.045 13.381M 22.045 13.381C 21.837893 13.381 21.67 13.548893 21.67 13.756C 21.67 13.963107 21.837893 14.131 22.045 14.131C 22.252106 14.131 22.42 13.963107 22.42 13.756C 22.42 13.548893 22.252106 13.381 22.045 13.381M 28.045 34.75L 14.545 34.75C 12.888145 34.75 11.545 33.406853 11.545 31.75L 11.545 13.75C 11.545 12.093145 12.888145 10.75 14.545 10.75L 38.545002 10.75C 40.201855 10.75 41.545002 12.093145 41.545002 13.75L 41.545002 25.75"></path></g></g></g><g id="g-root-tx_storetok_4j7lx31a3t05k-stroke" data-item-order="0" transform="translate(231.52859497070312, 530.9999389648438)"></g><g id="g-root-conv_v7dktz1a3ufpe-stroke" data-item-order="0" transform="translate(183.52859497070312, 464.99993896484375)"><g id="conv_v7dktz1a3ufpe-stroke" fill="none" stroke-linecap="round" stroke-linejoin="round" stroke-miterlimit="4" stroke="#fb6762" stroke-width="2"><g><path d="M 33.25 32.125C 33.457108 32.125 33.625 32.292892 33.625 32.5M 32.875 32.5C 32.875 32.292892 33.042892 32.125 33.25 32.125M 33.25 32.875C 33.042892 32.875 32.875 32.707108 32.875 32.5M 33.625 32.5C 33.625 32.707108 33.457108 32.875 33.25 32.875M 31 15.25L 36.25 15.25C 39.563709 15.25 42.25 17.936291 42.25 21.25L 42.25 25.75M 34 18.25L 31 15.25L 34 12.25M 24.25 40.75L 19.75 40.75C 16.436291 40.75 13.75 38.063709 13.75 34.75L 13.75 30.25M 21.25 37.75L 24.25 40.75L 21.25 43.75M 36.25 40.75L 36.25 34.75C 36.25 33.921574 36.921574 33.25 37.75 33.25L 39.25 33.25M 36.25 37.75L 38.5 37.75M 16 16.375C 16.207108 16.375 16.375 16.542892 16.375 16.75M 15.625 16.75C 15.625 16.542892 15.792893 16.375 16 16.375M 16 17.125C 15.792893 17.125 15.625 16.957108 15.625 16.75M 16.375 16.75C 16.375 16.957108 16.207108 17.125 16 17.125M 21.25 16.75C 19.593145 16.75 18.25 18.093145 18.25 19.75L 18.25 21.25C 18.25 22.906855 19.593145 24.25 21.25 24.25M 10.75 19.75C 10.75 24.720562 14.779438 28.75 19.75 28.75C 24.720562 28.75 28.75 24.720562 28.75 19.75C 28.75 14.779438 24.720562 10.75 19.75 10.75C 14.779438 10.75 10.75 14.779438 10.75 19.75ZM 27.25 36.25C 27.250002 41.220566 31.279438 45.25 36.25 45.25C 41.220566 45.25 45.25 41.220566 45.25 36.25C 45.25 31.279438 41.220566 27.250002 36.25 27.250002C 31.279438 27.250002 27.250002 31.279438 27.250002 36.25Z"></path></g></g></g><g id="g-root-tx_exchange_3e3sn1a3t0xt-stroke" data-item-order="0" transform="translate(231.52859497070312, 470.99993896484375)"></g><g id="g-root-toke_1hdumd31a3szy9-stroke" data-item-order="0" transform="translate(183.52859497070312, 524.9999389648438)"><g id="toke_1hdumd31a3szy9-stroke" fill="none" stroke-linecap="round" stroke-linejoin="round" stroke-miterlimit="4" stroke="#f366bb" stroke-width="2"><g><path d="M 30.549999 10.75L 30.549999 20.155001L 28 23.200001L 25.450001 20.155001L 25.450001 10.75L 30.549999 10.75ZM 19.93 12.55L 25.450001 20.155001L 25.18 24.115L 21.325001 23.155001L 15.805 15.55L 19.93 12.55ZM 12.385 20.244999L 21.325001 23.155001L 23.440001 26.514999L 19.75 28L 10.81 25.09L 12.385 20.244999ZM 10.81 30.91L 19.75 28L 23.440001 29.485001L 21.325001 32.845001L 12.385 35.755001L 10.81 30.91ZM 15.805 40.449997L 21.325001 32.845001L 25.18 31.885L 25.450001 35.845001L 19.93 43.449997L 15.805 40.449997ZM 25.450001 45.25L 25.450001 35.845001L 28 32.799999L 30.549999 35.845001L 30.549999 45.25L 25.450001 45.25ZM 36.07 43.449997L 30.549999 35.845001L 30.82 31.885L 34.675003 32.845001L 40.209999 40.449997L 36.07 43.449997ZM 43.614998 35.755001L 34.675003 32.845001L 32.560001 29.485001L 36.25 28L 45.189999 30.91L 43.614998 35.755001ZM 45.189999 25.09L 36.25 28L 32.560001 26.514999L 34.675003 23.155001L 43.614998 20.244999L 45.189999 25.09ZM 40.209999 15.55L 34.675003 23.155001L 30.82 24.115L 30.549999 20.155001L 36.07 12.55L 40.209999 15.55Z"></path></g></g></g><g id="g-root-tx_spotifya_1lt1nef1a3t2bs-stroke" data-item-order="0" transform="translate(171.528564453125, 39)"></g></g></g></svg>